<svg xmlns="http://www.w3.org/2000/svg" version="1.1" xmlns:xlink="http://www.w3.org/1999/xlink" xmlns:svgjs="http://svgjs.dev/svgjs" width="1500" height="1500" viewBox="0 0 1500 1500"><rect width="1500" height="1500" fill="#ffffff"></rect><g transform="matrix(0.6666666666666666,0,0,0.6666666666666666,249.39393939393938,435.99032258064517)"><svg viewBox="0 0 396 248" data-background-color="#ffffff" preserveAspectRatio="xMidYMid meet" height="939" width="1500" xmlns="http://www.w3.org/2000/svg" xmlns:xlink="http://www.w3.org/1999/xlink"><g id="tight-bounds" transform="matrix(1,0,0,1,0.2400000000000091,0.4000000000000057)"><svg viewBox="0 0 395.52 247.2" height="247.2" width="395.52"><g><svg></svg></g><g><svg viewBox="0 0 395.52 247.2" height="247.2" width="395.52"><g transform="matrix(1,0,0,1,75.54432,85.97719984703633)"><svg viewBox="0 0 244.43135999999998 75.24560030592734" height="75.24560030592734" width="244.43135999999998"><g><svg viewBox="0 0 244.43135999999998 75.24560030592734" height="75.24560030592734" width="244.43135999999998"><g><svg viewBox="0 0 244.43135999999998 75.24560030592734" height="75.24560030592734" width="244.43135999999998"><g><svg viewBox="0 0 244.43135999999998 75.24560030592734" height="75.24560030592734" width="244.43135999999998"><g id="textblocktransform"><svg viewBox="0 0 244.43135999999998 75.24560030592734" height="75.24560030592734" width="244.43135999999998" id="textblock"><g><svg viewBox="0 0 244.43135999999998 75.24560030592734" height="75.24560030592734" width="244.43135999999998"><g transform="matrix(1,0,0,1,0,0)"><svg width="244.43135999999998" viewBox="3 -32.05 104.59 32.199999999999996" height="75.24560030592734" data-palette-color="#1ed680"><path d="M33.25-32.05L36.4 0 32.8 0 32.05-9.75 30.35-25.7 30-25.7 21.1-3.7 17.8-3.7 9.35-25.7 8.95-25.7 7.25-10.05 6.4 0 3 0 6.35-32.05 10.9-32.05 12.55-27.15 19.5-8.9 19.8-8.9 27.1-27.45 28.75-32.05 33.25-32.05ZM59.8-3.35L60.1-3 59.75 0 43.95 0 44.2-9.65 43.95-32.05 48.05-32.05 47.8-10 47.95-3.35 59.8-3.35ZM75.4-24.9L84.15 0 80.4 0 79.8-2.7 78.5-6.4 72.55-6.45 67.25-6.4 65.9-2.9 65.2 0 61.5 0 71.09-24.9 75.4-24.9ZM72.84-9.4L77.45-9.45 73.3-21.25 73-21.25 68.45-9.45 72.84-9.4ZM102.04-12.95Q107.59-11.85 107.59-7.05L107.59-7.05Q107.59-3.45 104.79-1.65 101.99 0.15 96.59 0.15L96.59 0.15Q93.34 0.15 90.34 0L90.34 0 90.49-7.5 90.34-24.9 98.14-24.95Q101.89-24.95 103.97-23.38 106.04-21.8 106.04-18.9L106.04-18.9Q106.04-16.75 104.99-15.25 103.94-13.75 102.04-12.95L102.04-12.95ZM102.09-18.45Q102.09-20.3 100.89-21.15 99.69-22 97.04-22L97.04-22 93.99-22 93.94-14.3 98.39-14.15Q100.24-14.55 101.17-15.58 102.09-16.6 102.09-18.45L102.09-18.45ZM97.04-2.7Q100.29-2.7 102.02-3.83 103.74-4.95 103.74-7.15L103.74-7.15Q103.74-8.95 102.54-9.95 101.34-10.95 98.89-11.3L98.89-11.3 93.94-11.25 93.89-7.8 93.99-2.85Q95.54-2.7 97.04-2.7L97.04-2.7Z" opacity="1" transform="matrix(1,0,0,1,0,0)" fill="#000000" class="wordmark-text-0" data-fill-palette-color="primary" id="text-0"></path></svg></g></svg></g></svg></g></svg></g><g></g></svg></g></svg></g></svg></g><g><path d="M88.815 68.214A122.216 122.216 0 0 1 306.705 68.214L299.919 68.214A115.43 115.43 0 0 0 95.601 68.214L88.815 68.214M88.815 178.986A122.216 122.216 0 0 0 306.705 178.986L299.919 178.986A115.43 115.43 0 0 1 95.601 178.986L88.815 178.986" fill="#000000" stroke="transparent" data-fill-palette-color="tertiary"></path></g></svg></g><defs></defs></svg><rect width="395.52" height="247.2" fill="none" stroke="none" visibility="hidden"></rect></g></svg></g></svg>